<svg class="checkmark" width="50" height="48" fill="none" xmlns="http://www.w3.org/2000/svg"><path class="checkmark__circle" d="M45.492 19.734a2.009 2.009 0 00-2.008 2.008v2.021a19.737 19.737 0 01-19.735 19.725h-.012a19.737 19.737 0 01.011-39.475h.011a19.59 19.59 0 018.022 1.71 2.01 2.01 0 101.634-3.667A23.6 23.6 0 0023.762 0h-.014A23.75 23.75 0 006.946 40.535a23.594 23.594 0 0016.789 6.966h.014a23.751 23.751 0 0023.75-23.738V21.74a2.009 2.009 0 00-2.007-2.007z" fill="#fff"/><path class="checkmark__check" d="M49.086 2.774a2.009 2.009 0 00-2.838 0l-22.5 22.5-5.102-5.103a2.008 2.008 0 00-2.838 2.838l6.523 6.523a2.009 2.009 0 002.838 0L49.088 5.613a2.008 2.008 0 00-.002-2.839z" fill="#fff"/></svg>