<svg xmlns="http://www.w3.org/2000/svg" id="_x31__x2C_5" height="512" viewBox="0 0 36 36" width="512"><path d="m8.377 31.833c6.917 0 11.667 3.583 15 3.583s10.333-1.916 10.333-17.249-9.417-17.584-13.083-17.584c-17.167 0-24.5 31.25-12.25 31.25z" fill="#efefef"></path><path d="m4.375 2.25h1v2h-1z" fill="#a4afc1"></path><path d="m1.125 5.25h2v1h-2z" fill="#a4afc1"></path><path d="m26.25 20.25v-1.776c0-.468-.164-.921-.464-1.28l-1.436-1.724c-.38-.456-.943-.72-1.536-.72h-9.626c-.594 0-1.156.264-1.536.72l-1.437 1.724c-.3.359-.464.813-.464 1.28v1.776z" fill="#f3f3f1"></path><path d="m26.25 23.75v1.776c0 .468-.164.921-.464 1.28l-1.436 1.724c-.38.456-.943.72-1.536.72h-9.626c-.594 0-1.156-.264-1.536-.72l-1.437-1.724c-.3-.359-.464-.813-.464-1.28v-1.776z" fill="#f3f3f1"></path><path d="m13.75 14.5.544-1.632c.272-.817 1.037-1.368 1.897-1.368h3.617c.861 0 1.625.551 1.897 1.368l.545 1.632z" fill="#2fdf84"></path><path d="m16.25 11.5v-3.75c0-.552.448-1 1-1h1.5c.552 0 1 .448 1 1v3.75z" fill="#f3f3f1"></path><path d="m12.214 17.194 1.437-1.724c.38-.456.943-.719 1.536-.719h-2c-.594 0-1.156.264-1.536.719l-1.437 1.724c-.3.359-.464.813-.464 1.281v1.776h2v-1.776c0-.469.164-.922.464-1.281z" fill="#d5dbe1"></path><path d="m12.214 26.806c-.3-.359-.464-.813-.464-1.28v-1.776h-2v1.776c0 .468.164.921.464 1.28l1.437 1.724c.38.456.943.72 1.536.72h2c-.594 0-1.156-.264-1.536-.72z" fill="#d5dbe1"></path><path d="m18.192 11.5h-2c-.861 0-1.625.551-1.897 1.368l-.545 1.632h2l.544-1.632c.272-.817 1.037-1.368 1.898-1.368z" fill="#00b871"></path><path d="m19 6.8c-.082-.022-.161-.05-.25-.05h-1.5c-.552 0-1 .448-1 1v3.75h2v-3.75c0-.464.322-.836.75-.95z" fill="#d5dbe1"></path><path d="m27 20.25h-1.5v-1.776c0-.292-.103-.576-.29-.8l-1.437-1.725c-.238-.286-.588-.45-.96-.45h-9.626c-.372 0-.723.164-.961.45l-1.437 1.724c-.188.225-.29.508-.29.8v1.776h-1.499v-1.776c0-.642.227-1.268.638-1.761l1.437-1.724c.523-.629 1.294-.99 2.113-.99h9.626c.818 0 1.589.361 2.112.99l1.437 1.724c.41.495.637 1.12.637 1.762z"></path><path d="m7 19.5h22v1.5h-22z"></path><path d="m10 17h16v1.5h-16z"></path><path d="m22.813 30h-9.626c-.819 0-1.59-.361-2.113-.99l-1.437-1.724c-.41-.493-.637-1.118-.637-1.76v-1.776h1.5v1.776c0 .292.103.576.29.8l1.437 1.725c.238.286.589.45.961.45h9.626c.372 0 .722-.164.96-.45l1.437-1.724c.188-.225.29-.508.29-.8v-1.777h1.499v1.776c0 .642-.227 1.268-.638 1.761l-1.437 1.724c-.523.628-1.293.989-2.112.989z"></path><path d="m7 23h22v1.5h-22z"></path><path d="m10 25.5h16v1.5h-16z"></path><path d="m21.538 14.737-.544-1.632c-.17-.511-.646-.855-1.186-.855h-3.617c-.539 0-1.016.344-1.186.855l-.544 1.632-1.424-.475.544-1.632c.376-1.125 1.424-1.88 2.609-1.88h3.617c1.186 0 2.233.756 2.609 1.88l.544 1.632z"></path><path d="m20.5 11.5h-1.5v-3.75c0-.138-.112-.25-.25-.25h-1.5c-.138 0-.25.112-.25.25v3.75h-1.5v-3.75c0-.965.785-1.75 1.75-1.75h1.5c.965 0 1.75.785 1.75 1.75z"></path></svg>